# xmcd
#
# Track frame offsets: 
#        300
#        20948
#        37832
#        58540
#        73686
#        93473
#        108196
#        130273
#        156882
#        179225
#        199818
#        218826
#        240188
#        255558
#        272147
#        287912
#        308546
#        326814
#
# Disc length: 4679 seconds
#
# Revision: 0
# Processed by: cddbd v1.5.2PL0 Copyright (c) Steve Scherf et al.
# Submitted via: ExactAudioCopy v0.99pb5
#
DISCID=0c124312
DTITLE=Brad Paisley - Norwegian Favorites
DYEAR=2010
DGENRE=Neo-Traditional Country
TTITLE0=Ticks
TTITLE1=Celebrity
TTITLE2=American Saturday Night
TTITLE3=Me Neither
TTITLE4=Water
TTITLE5=I'm Gonna Miss Her
TTITLE6=Alcohol
TTITLE7=Welcome To The Future
TTITLE8=Online
TTITLE9=Waitin' On A Woman
TTITLE10=I'm Still A Guy
TTITLE11=He Didn't Have To Be
TTITLE12=Wrapped Around
TTITLE13=Little Moments
TTITLE14=Mud On The Tires
TTITLE15=Come On Over Tonight
TTITLE16=The World
TTITLE17=Then
EXTD=
EXTT0=
EXTT1=
EXTT2=
EXTT3=
EXTT4=
EXTT5=
EXTT6=
EXTT7=
EXTT8=
EXTT9=
EXTT10=
EXTT11=
EXTT12=
EXTT13=
EXTT14=
EXTT15=
EXTT16=
EXTT17=
PLAYORDER=
